<svg xmlns="http://www.w3.org/2000/svg" width="1280" height="720" viewBox="0 0 1280 720"><defs><linearGradient id="sky" x2="0" y2="1"><stop stop-color="#102c32"/><stop offset="1" stop-color="#49665d"/></linearGradient><linearGradient id="wall" x2="0" y2="1"><stop stop-color="#dbc8a0"/><stop offset="1" stop-color="#bda579"/></linearGradient></defs><rect width="1280" height="720" fill="url(#sky)"/><circle cx="1010" cy="140" r="85" fill="#e8dba9" opacity=".35"/><rect y="480" width="1280" height="240" fill="#d4c4a1"/><path d="M0 490h1280v-30H0z" fill="#8caa99"/><rect x="135" y="270" width="1010" height="270" rx="8" fill="url(#wall)"/><path d="M330 275c10-175 610-175 620 0z" fill="#d5bd89"/><path d="M360 270c20-130 540-130 560 0z" fill="#a7c1ad"/><path d="M630 103h20v-42h-20z" fill="#e9d6a4"/><circle cx="640" cy="55" r="12" fill="#e9d6a4"/><path d="M85 480V165h68v315M1127 480V165h68v315" fill="#cfb685"/><path d="M90 165q29-80 58 0M1132 165q29-80 58 0" fill="#b2c5ad"/><path d="M119 75v30M1160 75v30" stroke="#e8d4a2" stroke-width="9"/><g fill="#43685b"><path d="M250 520V380q75-125 150 0v140z"/><path d="M565 520V380q75-125 150 0v140z"/><path d="M880 520V380q75-125 150 0v140z"/></g><g stroke="#e9d5a7" stroke-width="7" fill="none"><path d="M260 520V385q65-110 130 0v135"/><path d="M575 520V385q65-110 130 0v135"/><path d="M890 520V385q65-110 130 0v135"/></g><path d="M0 575q320-30 640 0t640 0v145H0z" fill="#b0a88d" opacity=".5"/></svg>